{
	"asset":{
		"version":"2.0",
		"generator":"Maxon Cinema 4D 2023.2.2 (#200000219)"
	},
	"scenes":[{
		"nodes":[0,
		1,
		2]
	}],
	"nodes":[{
		"name":"Text",
		"mesh":0,
		"translation":[0.0,
		0.21088387072086335,
		0.0],
		"rotation":[0.0,
		0.0,
		0.0,
		-1.0],
		"scale":[1.0,
		1.0,
		1.0]
	},
	{
		"name":"Vizit",
		"mesh":1
	},
	{
		"name":"Runa",
		"mesh":2,
		"translation":[0.0,
		-0.5100010633468628,
		8.828294198731041e-17],
		"rotation":[1.0,
		-6.123234262925839e-17,
		6.123234262925839e-17,
		6.123234262925839e-17],
		"scale":[1.0,
		1.0,
		1.0]
	}],
	"meshes":[{
		"name":"Text",
		"primitives":[{
			"attributes":{
				"POSITION":1,
				"TEXCOORD_0":2
			},
			"indices":0,
			"material":0
		}]
	},
	{
		"name":"Vizit",
		"primitives":[{
			"attributes":{
				"POSITION":4
			},
			"indices":3,
			"material":1
		}]
	},
	{
		"name":"Runa",
		"primitives":[{
			"attributes":{
				"POSITION":6,
				"TEXCOORD_0":7
			},
			"indices":5,
			"material":2
		}]
	}],
	"accessors":[{
		"bufferView":0,
		"type":"SCALAR",
		"componentType":5123,
		"count":786,
		"byteOffset":0,
		"min":[0],
		"max":[184]
	},
	{
		"bufferView":1,
		"type":"VEC3",
		"componentType":5126,
		"count":185,
		"byteOffset":0,
		"min":[-44.79669189453125,
		-0.00003064595875912346,
		-24.79669189453125],
		"max":[44.79645538330078,
		-0.00003064595875912346,
		24.79669189453125]
	},
	{
		"bufferView":1,
		"type":"VEC2",
		"componentType":5126,
		"count":185,
		"byteOffset":12,
		"min":[0.002258980181068182,
		0.004066177643835545],
		"max":[0.9977383613586426,
		0.9959337711334229]
	},
	{
		"bufferView":2,
		"type":"SCALAR",
		"componentType":5123,
		"count":2982,
		"byteOffset":0,
		"min":[0],
		"max":[567]
	},
	{
		"bufferView":3,
		"type":"VEC3",
		"componentType":5126,
		"count":568,
		"byteOffset":0,
		"min":[-45.0,
		-0.5100000500679016,
		-25.0],
		"max":[45.0,
		0.21000002324581147,
		25.0]
	},
	{
		"bufferView":4,
		"type":"SCALAR",
		"componentType":5123,
		"count":786,
		"byteOffset":0,
		"min":[0],
		"max":[184]
	},
	{
		"bufferView":5,
		"type":"VEC3",
		"componentType":5126,
		"count":185,
		"byteOffset":0,
		"min":[-44.79669189453125,
		-0.00003064595875912346,
		-24.79669189453125],
		"max":[44.79645538330078,
		-0.00003064595875912346,
		24.79669189453125]
	},
	{
		"bufferView":5,
		"type":"VEC2",
		"componentType":5126,
		"count":185,
		"byteOffset":12,
		"min":[0.002258980181068182,
		0.004066177643835545],
		"max":[0.9977383613586426,
		0.9959337711334229]
	}],
	"bufferViews":[{
		"buffer":0,
		"byteOffset":0,
		"byteLength":1572,
		"target":34963
	},
	{
		"buffer":0,
		"byteOffset":1572,
		"byteLength":3700,
		"target":34962,
		"byteStride":20
	},
	{
		"buffer":1,
		"byteOffset":0,
		"byteLength":5964,
		"target":34963
	},
	{
		"buffer":1,
		"byteOffset":5964,
		"byteLength":6816,
		"target":34962
	},
	{
		"buffer":2,
		"byteOffset":0,
		"byteLength":1572,
		"target":34963
	},
	{
		"buffer":2,
		"byteOffset":1572,
		"byteLength":3700,
		"target":34962,
		"byteStride":20
	}],
	"buffers":[{
		"uri":"data:application/octet-stream;base64,",
		"byteLength":5272
	},
	{
		"uri":"data:application/octet-stream;base64,",
		"byteLength":12780
	},
	{
		"uri":"data:application/octet-stream;base64,",
		"byteLength":5272
	}],
	"images":[{
		"uri":"data:image/png;base64,"
	},
	{
		"uri":"data:image/png;base64,"
	},
	{
		"uri":"data:image/jpeg;base64,"
	},
	{
		"uri":"data:image/png;base64,"
	},
	{
		"uri":"data:image/png;base64,"
	}],
	"samplers":[{
		"magFilter":9729,
		"minFilter":9729,
		"wrapS":10497,
		"wrapT":10497
	},
	{
		"magFilter":9729,
		"minFilter":9729,
		"wrapS":10497,
		"wrapT":10497
	},
	{
		"magFilter":9729,
		"minFilter":9729,
		"wrapS":10497,
		"wrapT":10497
	},
	{
		"magFilter":9729,
		"minFilter":9729,
		"wrapS":10497,
		"wrapT":10497
	},
	{
		"magFilter":9729,
		"minFilter":9729,
		"wrapS":10497,
		"wrapT":10497
	},
	{
		"magFilter":9729,
		"minFilter":9729,
		"wrapS":10497,
		"wrapT":10497
	}],
	"textures":[{
		"sampler":0,
		"source":0
	},
	{
		"sampler":1,
		"source":1
	},
	{
		"sampler":2,
		"source":2
	},
	{
		"sampler":3,
		"source":2
	},
	{
		"sampler":4,
		"source":3
	},
	{
		"sampler":5,
		"source":4
	}],
	"materials":[{
		"name":"Text",
		"pbrMetallicRoughness":{
			"baseColorTexture":{
				"index":0
			},
			"baseColorFactor":[1.0,
			1.0,
			1.0,
			1.0],
			"metallicFactor":1.0,
			"roughnessFactor":1.0
		},
		"normalTexture":{
			"index":1,
			"scale":0.13999999999999936
		},
		"emissiveFactor":[0.0,
		0.0,
		0.0],
		"alphaMode":"OPAQUE",
		"doubleSided":true
	},
	{
		"name":"Fon",
		"pbrMetallicRoughness":{
			"baseColorTexture":{
				"index":2
			},
			"baseColorFactor":[1.0,
			1.0,
			1.0,
			1.0],
			"metallicFactor":1.0,
			"roughnessFactor":1.0
		},
		"normalTexture":{
			"index":3,
			"scale":0.13999999999999936
		},
		"emissiveFactor":[0.0,
		0.0,
		0.0],
		"alphaMode":"OPAQUE",
		"doubleSided":true
	},
	{
		"name":"Runa",
		"pbrMetallicRoughness":{
			"baseColorTexture":{
				"index":4
			},
			"baseColorFactor":[1.0,
			1.0,
			1.0,
			1.0],
			"metallicFactor":1.0,
			"roughnessFactor":1.0
		},
		"normalTexture":{
			"index":5,
			"scale":0.13999999999999936
		},
		"emissiveFactor":[0.0,
		0.0,
		0.0],
		"alphaMode":"OPAQUE",
		"doubleSided":true
	}]
}